HIERARCHY
ROOT Hips
{
	OFFSET 0.000000 121.760803 0.000000
	CHANNELS 6 Xposition Yposition Zposition Xrotation Yrotation Zrotation 
	JOINT Spine
	{
		OFFSET 0.072000 7.257294 -0.789700
		CHANNELS 3 Xrotation Yrotation Zrotation
		JOINT Spine1
		{
			OFFSET 0.000000 12.508769 -0.658067
			CHANNELS 3 Xrotation Yrotation Zrotation
			JOINT Spine1_split
			{
				OFFSET 0.000000 12.508769 -0.658067
				CHANNELS 3 Xrotation Yrotation Zrotation
				JOINT Spine2
				{
					OFFSET 0.000000 12.508769 -0.658067
					CHANNELS 3 Xrotation Yrotation Zrotation
					JOINT Neck
					{
						OFFSET 0.000000 14.033295 7.520400
						CHANNELS 3 Xrotation Yrotation Zrotation
						JOINT Head
						{
							OFFSET 0.000000 8.198502 5.703100
							CHANNELS 3 Xrotation Yrotation Zrotation
							JOINT HeadTop_End
							{
								OFFSET 0.000000 17.760803 13.332701
								CHANNELS 3 Xrotation Yrotation Zrotation
								End Site
								{
									OFFSET 0.000000 0.000000 0.000000
								}
							}
						}
					}
					JOINT LeftShoulder
					{
						OFFSET 6.292450 5.785301 -0.669000
						CHANNELS 3 Xrotation Yrotation Zrotation
						JOINT LeftShoulder_split
						{
							OFFSET 6.292450 5.785301 -0.669000
							CHANNELS 3 Xrotation Yrotation Zrotation
							JOINT LeftArm
							{
								OFFSET 13.907140 -6.093903 1.965100
								CHANNELS 3 Xrotation Yrotation Zrotation
								JOINT LeftForeArm
								{
									OFFSET 34.140198 0.000000 0.000000
									CHANNELS 3 Xrotation Yrotation Zrotation
									JOINT LeftHand
									{
										OFFSET 40.960209 0.000000 0.000000
										CHANNELS 3 Xrotation Yrotation Zrotation
										JOINT LeftHandThumb1
										{
											OFFSET 10.006996 -7.170425 9.573125
											CHANNELS 3 Xrotation Yrotation Zrotation
											JOINT LeftHandThumb2
											{
												OFFSET 1.835007 -1.059448 1.059443
												CHANNELS 3 Xrotation Yrotation Zrotation
												JOINT LeftHandThumb3
												{
													OFFSET 2.112267 -1.219513 1.219518
													CHANNELS 3 Xrotation Yrotation Zrotation
													JOINT LeftHandThumb4
													{
														OFFSET 4.843811 -2.796570 2.796576
														CHANNELS 3 Xrotation Yrotation Zrotation
														End Site
														{
															OFFSET 0.000000 0.000000 0.000000
														}
													}
												}
											}
										}
										JOINT LeftHandIndex1
										{
											OFFSET 18.389847 -0.922348 4.596882
											CHANNELS 3 Xrotation Yrotation Zrotation
											JOINT LeftHandIndex2
											{
												OFFSET 4.711273 0.000000 0.000000
												CHANNELS 3 Xrotation Yrotation Zrotation
												JOINT LeftHandIndex3
												{
													OFFSET 2.886131 0.000000 0.000000
													CHANNELS 3 Xrotation Yrotation Zrotation
													JOINT LeftHandIndex4
													{
														OFFSET 6.145912 0.000000 0.000000
														CHANNELS 3 Xrotation Yrotation Zrotation
														End Site
														{
															OFFSET 0.000000 0.000000 0.000000
														}
													}
												}
											}
										}
										JOINT LeftHandMiddle1
										{
											OFFSET 18.013008 0.000000 0.000000
											CHANNELS 3 Xrotation Yrotation Zrotation
											JOINT LeftHandMiddle2
											{
												OFFSET 4.946693 0.000000 0.000000
												CHANNELS 3 Xrotation Yrotation Zrotation
												JOINT LeftHandMiddle3
												{
													OFFSET 3.342232 0.000000 0.000000
													CHANNELS 3 Xrotation Yrotation Zrotation
													JOINT LeftHandMiddle4
													{
														OFFSET 4.461754 0.000000 0.000000
														CHANNELS 3 Xrotation Yrotation Zrotation
														End Site
														{
															OFFSET 0.000000 0.000000 0.000000
														}
													}
												}
											}
										}
										JOINT LeftHandRing1
										{
											OFFSET 15.849892 -0.102921 -4.126150
											CHANNELS 3 Xrotation Yrotation Zrotation
											JOINT LeftHandRing2
											{
												OFFSET 3.527054 0.000000 0.000000
												CHANNELS 3 Xrotation Yrotation Zrotation
												JOINT LeftHandRing3
												{
													OFFSET 2.961098 0.000000 0.000000
													CHANNELS 3 Xrotation Yrotation Zrotation
													JOINT LeftHandRing4
													{
														OFFSET 4.927200 0.000000 0.000000
														CHANNELS 3 Xrotation Yrotation Zrotation
														End Site
														{
															OFFSET 0.000000 0.000000 0.000000
														}
													}
												}
											}
										}
										JOINT LeftHandPinky1
										{
											OFFSET 12.791824 -0.832031 -6.799156
											CHANNELS 3 Xrotation Yrotation Zrotation
											JOINT LeftHandPinky2
											{
												OFFSET 3.327133 0.000000 0.000000
												CHANNELS 3 Xrotation Yrotation Zrotation
												JOINT LeftHandPinky3
												{
													OFFSET 3.014900 0.000000 0.000000
													CHANNELS 3 Xrotation Yrotation Zrotation
													JOINT LeftHandPinky4
													{
														OFFSET 5.847786 0.000000 0.000000
														CHANNELS 3 Xrotation Yrotation Zrotation
														End Site
														{
															OFFSET 0.000000 0.000000 0.000000
														}
													}
												}
											}
										}
									}
								}
							}
						}
					}
					JOINT RightShoulder
					{
						OFFSET -6.292450 5.785301 -0.669000
						CHANNELS 3 Xrotation Yrotation Zrotation
						JOINT RightShoulder_split
						{
							OFFSET -6.292450 5.785301 -0.669000
							CHANNELS 3 Xrotation Yrotation Zrotation
							JOINT RightArm
							{
								OFFSET -13.907140 -6.093903 1.965100
								CHANNELS 3 Xrotation Yrotation Zrotation
								JOINT RightForeArm
								{
									OFFSET -34.140198 0.000000 0.000000
									CHANNELS 3 Xrotation Yrotation Zrotation
									JOINT RightHand
									{
										OFFSET -40.960209 0.000000 0.000000
										CHANNELS 3 Xrotation Yrotation Zrotation
										JOINT RightHandThumb1
										{
											OFFSET -10.007050 -7.170456 9.573117
											CHANNELS 3 Xrotation Yrotation Zrotation
											JOINT RightHandThumb2
											{
												OFFSET -1.835007 -1.059448 1.059443
												CHANNELS 3 Xrotation Yrotation Zrotation
												JOINT RightHandThumb3
												{
													OFFSET -2.112267 -1.219513 1.219518
													CHANNELS 3 Xrotation Yrotation Zrotation
													JOINT RightHandThumb4
													{
														OFFSET -4.843834 -2.796585 2.796590
														CHANNELS 3 Xrotation Yrotation Zrotation
														End Site
														{
															OFFSET 0.000000 0.000000 0.000000
														}
													}
												}
											}
										}
										JOINT RightHandIndex1
										{
											OFFSET -18.389870 -0.922424 4.596786
											CHANNELS 3 Xrotation Yrotation Zrotation
											JOINT RightHandIndex2
											{
												OFFSET -4.711273 0.000000 0.000000
												CHANNELS 3 Xrotation Yrotation Zrotation
												JOINT RightHandIndex3
												{
													OFFSET -2.886131 0.000000 0.000000
													CHANNELS 3 Xrotation Yrotation Zrotation
													JOINT RightHandIndex4
													{
														OFFSET -6.145920 0.000000 0.000000
														CHANNELS 3 Xrotation Yrotation Zrotation
														End Site
														{
															OFFSET 0.000000 0.000000 0.000000
														}
													}
												}
											}
										}
										JOINT RightHandMiddle1
										{
											OFFSET -18.013008 0.000000 0.000000
											CHANNELS 3 Xrotation Yrotation Zrotation
											JOINT RightHandMiddle2
											{
												OFFSET -4.946693 0.000000 0.000000
												CHANNELS 3 Xrotation Yrotation Zrotation
												JOINT RightHandMiddle3
												{
													OFFSET -3.342232 0.000000 0.000000
													CHANNELS 3 Xrotation Yrotation Zrotation
													JOINT RightHandMiddle4
													{
														OFFSET -4.461754 0.000000 0.000000
														CHANNELS 3 Xrotation Yrotation Zrotation
														End Site
														{
															OFFSET 0.000000 0.000000 0.000000
														}
													}
												}
											}
										}
										JOINT RightHandRing1
										{
											OFFSET -15.849876 -0.102936 -4.126237
											CHANNELS 3 Xrotation Yrotation Zrotation
											JOINT RightHandRing2
											{
												OFFSET -3.527054 0.000000 0.000000
												CHANNELS 3 Xrotation Yrotation Zrotation
												JOINT RightHandRing3
												{
													OFFSET -2.961098 0.000000 0.000000
													CHANNELS 3 Xrotation Yrotation Zrotation
													JOINT RightHandRing4
													{
														OFFSET -4.927200 0.000000 0.000000
														CHANNELS 3 Xrotation Yrotation Zrotation
														End Site
														{
															OFFSET 0.000000 0.000000 0.000000
														}
													}
												}
											}
										}
										JOINT RightHandPinky1
										{
											OFFSET -12.791786 -0.832077 -6.799222
											CHANNELS 3 Xrotation Yrotation Zrotation
											JOINT RightHandPinky2
											{
												OFFSET -3.327133 0.000000 0.000000
												CHANNELS 3 Xrotation Yrotation Zrotation
												JOINT RightHandPinky3
												{
													OFFSET -3.014900 0.000000 0.000000
													CHANNELS 3 Xrotation Yrotation Zrotation
													JOINT RightHandPinky4
													{
														OFFSET -5.847786 0.000000 0.000000
														CHANNELS 3 Xrotation Yrotation Zrotation
														End Site
														{
															OFFSET 0.000000 0.000000 0.000000
														}
													}
												}
											}
										}
									}
								}
							}
						}
					}
				}
			}
		}
	}
	JOINT LeftUpLeg
	{
		OFFSET 13.026900 -6.336304 -1.092800
		CHANNELS 3 Xrotation Yrotation Zrotation
		JOINT LeftLeg
		{
			OFFSET 0.524474 -46.096886 9.782700
			CHANNELS 3 Xrotation Yrotation Zrotation
			JOINT LeftFoot
			{
				OFFSET -0.524474 -53.427422 -12.948200
				CHANNELS 3 Xrotation Yrotation Zrotation
				JOINT LeftToeBase
				{
					OFFSET 0.192200 -14.009700 16.364100
					CHANNELS 3 Xrotation Yrotation Zrotation
					JOINT LeftToe_End
					{
						OFFSET -1.784700 -0.561700 9.474800
						CHANNELS 3 Xrotation Yrotation Zrotation
						End Site
						{
							OFFSET 0.000000 0.000000 0.000000
						}
					}
				}
			}
		}
	}
	JOINT RightUpLeg
	{
		OFFSET -12.883000 -6.336304 -1.092800
		CHANNELS 3 Xrotation Yrotation Zrotation
		JOINT RightLeg
		{
			OFFSET -0.524587 -46.096825 9.782800
			CHANNELS 3 Xrotation Yrotation Zrotation
			JOINT RightFoot
			{
				OFFSET 0.524587 -53.427383 -12.948300
				CHANNELS 3 Xrotation Yrotation Zrotation
				JOINT RightToeBase
				{
					OFFSET -0.192200 -14.009700 16.364100
					CHANNELS 3 Xrotation Yrotation Zrotation
					JOINT RightToe_End
					{
						OFFSET 1.784700 -0.561700 9.474800
						CHANNELS 3 Xrotation Yrotation Zrotation
						End Site
						{
							OFFSET 0.000000 0.000000 0.000000
						}
					}
				}
			}
		}
	}
}
MOTION
Frames: 4
Frame Time: 0.016667
-3.013929 114.170731 14.850217 170.165147 -60.546847 167.212293 10.606964 -1.145586 -0.100438 -2.398481 -2.056337 2.718427 0.000000 0.000000 0.000000 -2.356983 -1.768270 2.869754 -3.888772 19.882590 3.910878 -0.526664 21.441466 -3.837596 0.000000 -0.000000 0.000000 0.705976 3.275484 -11.637330 0.000000 0.000000 0.000000 -4.210783 -8.950352 -59.610592 5.910695 -15.225803 -6.974012 -0.347273 0.742994 15.812388 -4.200352 10.157392 11.960010 6.085780 10.556465 -0.157852 1.966875 8.748030 4.028422 -0.000002 -0.000000 -0.000002 2.131783 -0.392585 -13.293945 -0.004695 0.197239 -18.934977 0.035592 0.133851 -16.180957 0.000001 0.000000 -0.000002 -1.008607 1.345607 -17.617325 0.069229 0.461246 -24.715292 0.023447 0.041108 -14.668712 0.000000 0.000001 -0.000002 -2.701865 4.172418 -17.242681 -0.035256 0.237662 -29.248595 0.095423 0.488150 -17.780465 0.000002 0.000002 -0.000001 -4.558670 4.536652 -26.611582 0.028884 0.178551 -30.761055 0.018646 0.101785 -18.036544 0.000000 0.000001 -0.000003 0.703461 1.524168 16.490411 0.000000 0.000000 0.000000 17.133157 25.354786 44.976232 15.517526 24.279272 -5.951863 -24.526021 1.149789 -17.348501 -0.473537 -9.226547 -6.063018 7.388316 -11.608414 1.218097 1.114541 -8.666562 -5.080445 0.000000 -0.000001 0.000002 2.309462 -3.333393 8.546105 0.013952 -0.262613 18.590064 0.032960 -0.191441 14.524197 0.000000 -0.000001 0.000000 -1.980201 -5.331740 13.722412 0.108065 -0.649754 26.760642 0.021262 -0.055473 11.780376 0.000000 -0.000001 -0.000002 -4.943431 -9.642925 11.063722 -0.035458 -0.347556 32.710934 0.124825 -0.708773 15.585517 0.000001 -0.000000 -0.000002 -6.499156 -10.799776 23.445978 0.059687 -0.257517 34.143279 0.028356 -0.146659 15.143320 -0.000001 0.000001 0.000002 -6.507084 10.525260 20.250679 19.872611 21.914392 2.087603 -4.492273 6.511314 -26.687735 -7.172403 1.814743 -2.983420 -0.000000 -0.000003 0.000000 -26.453002 -19.084863 -15.268965 18.622290 -17.614180 1.789266 2.360880 0.002745 7.166791 -0.871121 -11.159874 6.053560 -0.000000 0.000000 0.000000 
-2.871658 113.798347 13.068472 170.491466 -58.787404 167.710924 10.499935 -1.276798 -0.207910 -2.304553 -2.290408 3.051411 0.000000 0.000000 0.000000 -2.253760 -1.967687 3.217100 -4.003678 18.093284 2.764203 -1.209539 19.088007 -2.532615 0.000000 -0.000000 -0.000000 0.768061 3.463232 -12.577560 0.000000 0.000000 0.000000 -3.044085 -9.903326 -59.428308 7.177362 -16.260076 -6.053559 -3.592288 1.052244 15.956464 -4.274174 10.467641 11.892678 5.839003 10.360590 0.041993 2.116430 8.726469 3.819012 -0.000001 -0.000001 0.000000 2.051716 -0.987326 -14.446086 -0.008067 0.184412 -19.251016 0.033853 0.123547 -16.750284 0.000004 -0.000000 -0.000001 -0.876462 0.677755 -18.735055 0.063318 0.418325 -24.711913 0.023238 0.037747 -15.616579 0.000003 0.000001 0.000004 -2.394412 3.204076 -18.922875 -0.032557 0.215857 -29.133414 0.094240 0.441450 -18.750179 -0.000001 0.000003 -0.000001 -4.267614 3.447779 -27.868210 0.025617 0.162048 -30.809832 0.017726 0.092708 -19.287187 -0.000002 -0.000002 0.000002 0.701275 1.355141 15.823433 0.000000 0.000000 0.000000 16.534498 25.640286 45.312704 15.474299 24.341838 -5.985864 -24.226881 1.766186 -17.288069 -0.475924 -9.284834 -6.057588 7.374027 -11.607337 1.199333 1.111023 -8.621560 -5.054186 0.000001 -0.000002 -0.000006 2.297466 -3.261814 8.600800 0.014282 -0.263301 18.582597 0.033259 -0.192033 14.537665 0.000000 0.000000 -0.000000 -1.979938 -5.246728 13.763553 0.107334 -0.646745 26.717311 0.021623 -0.055591 11.815561 -0.000000 0.000001 0.000002 -4.937382 -9.523878 11.140132 -0.035762 -0.348095 32.646925 0.125632 -0.709547 15.611343 -0.000001 -0.000001 -0.000001 -6.512578 -10.659413 23.476299 0.059902 -0.258266 34.082876 0.028727 -0.147294 15.182699 0.000000 0.000002 -0.000002 -6.346317 9.999313 21.213905 21.110938 23.311907 2.156080 -2.319890 6.509132 -28.944730 -7.896816 1.479654 -2.532956 -0.000000 -0.000003 -0.000000 -28.316296 -22.574918 -14.796743 19.890723 -13.650359 1.037785 1.862592 0.945494 6.234086 -0.662052 -10.704126 6.053024 0.000000 -0.000001 0.000000 
-2.718355 113.417511 11.334661 170.951821 -57.143412 168.238815 10.601978 -1.409794 -0.119992 -2.282223 -2.483314 3.172529 0.000000 0.000000 0.000000 -2.225452 -2.139751 3.353372 -4.312743 16.256590 2.263037 -1.323578 17.025314 -2.023881 -0.000000 -0.000000 0.000000 0.793942 3.860548 -12.834927 0.000000 0.000000 0.000000 -2.590071 -10.725973 -59.685280 6.796646 -15.986953 -5.978561 -4.516844 0.869638 16.178119 -4.350489 10.787258 11.824449 5.585232 10.158497 0.246089 2.270167 8.703463 3.603675 -0.000001 -0.000001 0.000000 1.949230 -1.594988 -15.631609 -0.011643 0.171278 -19.576159 0.031693 0.112909 -17.335961 -0.000000 -0.000001 -0.000001 -0.762994 -0.013263 -19.880394 0.057193 0.374153 -24.708066 0.022749 0.033629 -16.592165 0.000002 0.000000 -0.000003 -2.128877 2.191438 -20.636095 -0.029288 0.193446 -29.015555 0.090469 0.393558 -19.748488 -0.000003 -0.000000 -0.000002 -4.009863 2.316282 -29.144243 0.022209 0.145144 -30.860963 0.016427 0.083404 -20.575211 0.000000 -0.000002 0.000002 0.708325 1.125613 15.555423 0.000000 0.000000 0.000000 16.276307 26.099165 45.427650 15.667819 24.549513 -6.236642 -23.970021 2.169548 -17.977326 -0.478578 -9.343093 -6.052159 7.359754 -11.606337 1.180555 1.107550 -8.576583 -5.028085 -0.000000 -0.000000 -0.000006 2.285640 -3.191678 8.655806 0.014419 -0.263776 18.575598 0.033464 -0.192408 14.551506 -0.000002 -0.000000 0.000001 -1.980058 -5.161943 13.801817 0.106586 -0.643595 26.672608 0.021858 -0.055554 11.848845 0.000001 -0.000000 0.000001 -4.933569 -9.403509 11.210509 -0.036029 -0.348473 32.579183 0.126237 -0.709990 15.633342 -0.000001 -0.000001 -0.000001 -6.528597 -10.515629 23.497389 0.059929 -0.258731 34.016084 0.028945 -0.147611 15.216092 -0.000002 -0.000000 -0.000002 -6.475326 9.887985 22.327089 22.680755 24.281191 2.211307 -0.274671 6.208301 -30.652356 -8.801167 1.105637 -1.740815 -0.000000 -0.000001 0.000000 -29.575296 -24.801264 -14.166010 21.265089 -10.754496 0.432879 1.345209 1.641102 5.550222 -0.484708 -10.324522 5.923321 -0.000000 0.000001 0.000000 
-2.547146 113.061287 9.461202 171.931434 -55.346566 169.087958 11.005881 -1.470011 0.473549 -2.311409 -2.458902 2.656138 0.000000 0.000000 0.000000 -2.266519 -2.142667 2.841963 -4.723526 14.069393 3.187258 -1.044574 15.252415 -2.299040 0.000000 -0.000000 -0.000001 0.698517 3.486614 -11.418156 0.000000 0.000000 0.000000 -2.788107 -10.705278 -61.013568 6.324337 -14.736755 -5.900936 -4.856886 0.224938 16.321948 -4.428136 11.111377 11.756502 5.328283 9.953003 0.451389 2.425795 8.679525 3.385525 0.000001 -0.000003 -0.000004 1.824247 -2.206775 -16.833163 -0.015528 0.158002 -19.905596 0.029281 0.102151 -17.929352 -0.000001 -0.000001 -0.000001 -0.671710 -0.717652 -21.035726 0.051046 0.329377 -24.704168 0.022080 0.029496 -17.580612 -0.000000 -0.000000 -0.000001 -1.913178 1.149653 -22.356126 -0.025950 0.170683 -28.896666 0.084931 0.345217 -20.760312 0.000003 0.000001 -0.000002 -3.792510 1.158812 -30.419730 0.018539 0.127882 -30.913525 0.014598 0.074070 -21.880757 -0.000000 0.000002 -0.000003 0.748267 0.713206 16.348357 0.000000 0.000000 0.000000 16.070877 26.382603 45.353542 15.509623 24.754771 -6.377430 -23.526482 2.543089 -18.509818 -0.481026 -9.401254 -6.046678 7.345464 -11.605486 1.161681 1.104117 -8.531617 -5.001965 -0.000000 -0.000000 0.000002 2.274403 -3.123230 8.711372 0.014454 -0.264009 18.568819 0.033581 -0.192440 14.565409 -0.000001 -0.000001 0.000001 -1.980341 -5.077268 13.837590 0.105861 -0.640515 26.625875 0.021958 -0.055355 11.880497 0.000000 -0.000001 -0.000002 -4.930956 -9.281452 11.275145 -0.036173 -0.348590 32.507473 0.126639 -0.710115 15.651570 0.000001 -0.000002 0.000000 -6.546910 -10.368717 23.509614 0.059883 -0.258971 33.943335 0.029063 -0.147650 15.243476 0.000001 -0.000002 -0.000000 -6.335753 10.311390 23.668957 24.115055 24.982059 2.244440 1.889630 5.637910 -32.302533 -9.275683 0.728441 -2.308660 0.000000 0.000000 0.000001 -29.739552 -24.857306 -12.949775 22.717143 -9.353276 0.201539 0.828606 1.803277 5.114470 -0.370735 -10.312321 5.945160 0.000000 -0.000000 -0.000000 
